<svg width="179" height="74" viewBox="0 0 179 74" fill="none" xmlns="http://www.w3.org/2000/svg">
<rect x="2.5" y="2.5" width="174" height="69" stroke="white" stroke-width="5"/>
<path d="M49.5528 47.1875C48.0606 47.1875 46.8575 46.7227 45.9434 45.793C45.0372 44.8633 44.5841 43.5625 44.5841 41.8906V32.375C44.5841 30.375 44.9786 28.8438 45.7677 27.7812C46.5645 26.7188 47.8575 26.1875 49.6466 26.1875C50.6231 26.1875 51.4903 26.3672 52.2481 26.7266C53.0137 27.0859 53.6153 27.625 54.0528 28.3438C54.4903 29.0547 54.7091 29.9531 54.7091 31.0391V34.6016H50.6075V31.5547C50.6075 30.9375 50.5294 30.5234 50.3731 30.3125C50.2169 30.0938 49.9747 29.9844 49.6466 29.9844C49.2637 29.9844 49.0059 30.125 48.8731 30.4062C48.7403 30.6797 48.6739 31.0469 48.6739 31.5078V41.832C48.6739 42.4023 48.7559 42.8047 48.92 43.0391C49.0919 43.2734 49.3341 43.3906 49.6466 43.3906C49.9981 43.3906 50.2442 43.2461 50.3848 42.957C50.5333 42.668 50.6075 42.293 50.6075 41.832V38.1172H54.7559V42.0195C54.7559 43.832 54.2989 45.1484 53.3848 45.9688C52.4708 46.7812 51.1934 47.1875 49.5528 47.1875ZM55.5762 47L57.5684 26.375H64.5645L66.5216 47H62.6192L62.3262 43.6719H59.8419L59.5841 47H55.5762ZM60.1348 40.3789H62.0098L61.1075 29.8906H60.92L60.1348 40.3789ZM67.7872 47V26.375H74.1153C75.17 26.375 75.9669 26.6172 76.5059 27.1016C77.045 27.5781 77.4044 28.25 77.5841 29.1172C77.7716 29.9766 77.8653 30.9883 77.8653 32.1523C77.8653 33.2773 77.7208 34.1758 77.4317 34.8477C77.1505 35.5195 76.6153 35.9844 75.8262 36.2422C76.4747 36.375 76.9278 36.6992 77.1856 37.2148C77.4512 37.7227 77.5841 38.3828 77.5841 39.1953V47H73.5177V38.9258C73.5177 38.3242 73.3927 37.9531 73.1427 37.8125C72.9005 37.6641 72.5059 37.5898 71.9591 37.5898V47H67.7872ZM71.9825 34.0156H72.9786C73.5489 34.0156 73.8341 33.3945 73.8341 32.1523C73.8341 31.3477 73.7716 30.8203 73.6466 30.5703C73.5216 30.3203 73.2872 30.1953 72.9434 30.1953H71.9825V34.0156ZM79.2247 47V26.375H83.3497V43.4844H87.5919V47H79.2247ZM93.5684 47.1875C92.0762 47.1875 90.8731 46.7227 89.9591 45.793C89.0528 44.8633 88.5997 43.5625 88.5997 41.8906V32.375C88.5997 30.375 88.9942 28.8438 89.7833 27.7812C90.5802 26.7188 91.8731 26.1875 93.6622 26.1875C94.6387 26.1875 95.5059 26.3672 96.2637 26.7266C97.0294 27.0859 97.6309 27.625 98.0684 28.3438C98.5059 29.0547 98.7247 29.9531 98.7247 31.0391V34.6016H94.6231V31.5547C94.6231 30.9375 94.545 30.5234 94.3887 30.3125C94.2325 30.0938 93.9903 29.9844 93.6622 29.9844C93.2794 29.9844 93.0216 30.125 92.8887 30.4062C92.7559 30.6797 92.6895 31.0469 92.6895 31.5078V41.832C92.6895 42.4023 92.7716 42.8047 92.9356 43.0391C93.1075 43.2734 93.3497 43.3906 93.6622 43.3906C94.0137 43.3906 94.2598 43.2461 94.4005 42.957C94.5489 42.668 94.6231 42.293 94.6231 41.832V38.1172H98.7716V42.0195C98.7716 43.832 98.3145 45.1484 97.4005 45.9688C96.4864 46.7812 95.2091 47.1875 93.5684 47.1875ZM105.076 47.1875C103.428 47.1875 102.166 46.6914 101.291 45.6992C100.424 44.6992 99.9903 43.2578 99.9903 41.375V31.5781C99.9903 29.8125 100.42 28.4727 101.279 27.5586C102.147 26.6445 103.412 26.1875 105.076 26.1875C106.74 26.1875 108.002 26.6445 108.861 27.5586C109.729 28.4727 110.162 29.8125 110.162 31.5781V41.375C110.162 43.2578 109.725 44.6992 108.85 45.6992C107.982 46.6914 106.725 47.1875 105.076 47.1875ZM105.111 43.3906C105.736 43.3906 106.049 42.7852 106.049 41.5742V31.5078C106.049 30.4922 105.744 29.9844 105.135 29.9844C104.447 29.9844 104.104 30.5039 104.104 31.543V41.5977C104.104 42.2383 104.182 42.6992 104.338 42.9805C104.494 43.2539 104.752 43.3906 105.111 43.3906ZM111.826 47V26.375H118.107L119.842 38.9492L121.565 26.375H127.904V47H124.131V32.1406L121.764 47H118.061L115.553 32.1406V47H111.826Z" fill="#FDFCFC"/>
</svg>
