<svg width="179" height="74" viewBox="0 0 179 74" fill="none" xmlns="http://www.w3.org/2000/svg">
<rect x="2.5" y="2.5" width="174" height="69" stroke="white" stroke-width="5"/>
<path d="M30.8731 34.9375L30.1934 35.4531C29.5137 34.6094 28.6387 34.1875 27.5684 34.1875C26.6387 34.1875 25.8419 34.5195 25.1778 35.1836C24.5216 35.8398 24.1934 36.6328 24.1934 37.5625C24.1934 38.4922 24.5216 39.2891 25.1778 39.9531C25.8419 40.6094 26.6387 40.9375 27.5684 40.9375C28.0919 40.9375 28.5802 40.8242 29.0333 40.5977C29.4942 40.3711 29.8848 40.0586 30.2052 39.6602L30.8614 40.2109C30.4708 40.7031 29.9864 41.0898 29.4083 41.3711C28.8302 41.6445 28.2169 41.7812 27.5684 41.7812C26.4044 41.7812 25.4083 41.3711 24.5802 40.5508C23.7598 39.7227 23.3497 38.7266 23.3497 37.5625C23.3497 36.3984 23.7598 35.4062 24.5802 34.5859C25.4083 33.7578 26.4044 33.3438 27.5684 33.3438C28.2247 33.3438 28.8419 33.4883 29.42 33.7773C29.9981 34.0586 30.4825 34.4453 30.8731 34.9375ZM32.1856 33.8828L31.5177 34.3984C31.0489 33.8047 30.4669 33.3398 29.7716 33.0039C29.0841 32.668 28.3497 32.5 27.5684 32.5C26.17 32.5 24.9747 32.9961 23.9825 33.9883C22.9981 34.9805 22.5059 36.1719 22.5059 37.5625C22.5059 38.9531 22.9981 40.1445 23.9825 41.1367C24.9747 42.1289 26.17 42.625 27.5684 42.625C28.3497 42.625 29.088 42.457 29.7833 42.1211C30.4786 41.7773 31.0606 41.3086 31.5294 40.7148L32.1739 41.2539C31.627 41.9414 30.9512 42.4844 30.1466 42.8828C29.3419 43.2734 28.4825 43.4688 27.5684 43.4688C26.4981 43.4688 25.5098 43.207 24.6036 42.6836C23.6973 42.1523 22.9786 41.4336 22.4473 40.5273C21.9239 39.6211 21.6622 38.6328 21.6622 37.5625C21.6622 36.4922 21.9239 35.5039 22.4473 34.5977C22.9786 33.6914 23.6973 32.9766 24.6036 32.4531C25.5098 31.9219 26.4981 31.6562 27.5684 31.6562C28.4825 31.6562 29.3419 31.8555 30.1466 32.2539C30.9591 32.6445 31.6387 33.1875 32.1856 33.8828ZM33.5098 32.8281L32.8536 33.3555C32.2208 32.5664 31.4434 31.9453 30.5216 31.4922C29.5997 31.0391 28.6153 30.8125 27.5684 30.8125C26.6544 30.8125 25.7794 30.9922 24.9434 31.3516C24.1153 31.7031 23.3966 32.1836 22.7872 32.793C22.1856 33.3945 21.7052 34.1133 21.3458 34.9492C20.9942 35.7773 20.8184 36.6484 20.8184 37.5625C20.8184 38.4766 20.9942 39.3516 21.3458 40.1875C21.7052 41.0156 22.1856 41.7344 22.7872 42.3438C23.3966 42.9453 24.1153 43.4258 24.9434 43.7852C25.7794 44.1367 26.6544 44.3125 27.5684 44.3125C28.6153 44.3125 29.5997 44.0859 30.5216 43.6328C31.4434 43.1797 32.2208 42.5586 32.8536 41.7695L33.4864 42.3203C32.7755 43.2031 31.9044 43.8984 30.8731 44.4062C29.8419 44.9062 28.7403 45.1562 27.5684 45.1562C26.5372 45.1562 25.5528 44.957 24.6153 44.5586C23.6778 44.1523 22.8692 43.6133 22.1895 42.9414C21.5177 42.2617 20.9786 41.4531 20.5723 40.5156C20.1739 39.5781 19.9747 38.5938 19.9747 37.5625C19.9747 36.5312 20.1739 35.5469 20.5723 34.6094C20.9786 33.6719 21.5177 32.8672 22.1895 32.1953C22.8692 31.5156 23.6778 30.9766 24.6153 30.5781C25.5528 30.1719 26.5372 29.9688 27.5684 29.9688C28.7481 29.9688 29.8536 30.2227 30.8848 30.7305C31.9239 31.2383 32.7989 31.9375 33.5098 32.8281ZM34.8223 31.7734L34.1427 32.2773C33.3536 31.3008 32.3848 30.5312 31.2364 29.9688C30.0958 29.4062 28.8731 29.125 27.5684 29.125C26.4278 29.125 25.3341 29.3477 24.2872 29.793C23.2481 30.2383 22.3497 30.8398 21.5919 31.5977C20.8419 32.3477 20.2442 33.2461 19.7989 34.293C19.3536 35.332 19.1309 36.4219 19.1309 37.5625C19.1309 38.7031 19.3536 39.7969 19.7989 40.8438C20.2442 41.8828 20.8419 42.7812 21.5919 43.5391C22.3497 44.2891 23.2481 44.8867 24.2872 45.332C25.3341 45.7773 26.4278 46 27.5684 46C28.8731 46 30.0958 45.7188 31.2364 45.1562C32.3848 44.5938 33.3536 43.8242 34.1427 42.8477L34.8106 43.3633C33.9434 44.4414 32.877 45.293 31.6114 45.918C30.3536 46.5352 29.0059 46.8438 27.5684 46.8438C26.3106 46.8438 25.1075 46.5977 23.9591 46.1055C22.8184 45.6133 21.8341 44.9531 21.0059 44.125C20.1778 43.2969 19.5177 42.3125 19.0255 41.1719C18.5333 40.0234 18.2872 38.8203 18.2872 37.5625C18.2872 36.3047 18.5333 35.1055 19.0255 33.9648C19.5177 32.8164 20.1778 31.8281 21.0059 31C21.8341 30.1719 22.8184 29.5117 23.9591 29.0195C25.1075 28.5273 26.3106 28.2812 27.5684 28.2812C29.0059 28.2812 30.3575 28.5938 31.6231 29.2188C32.8887 29.8359 33.9552 30.6875 34.8223 31.7734ZM48.4044 37.6797C48.4044 36.6797 48.0958 35.9062 47.4786 35.3594C46.8614 34.8125 46.045 34.5391 45.0294 34.5391C44.17 34.5391 43.4317 34.8359 42.8145 35.4297C42.1973 36.0234 41.8887 36.7344 41.8887 37.5625C41.8887 38.0312 41.9512 38.4531 42.0762 38.8281C42.2012 39.1953 42.3692 39.5039 42.5802 39.7539C42.7989 39.9961 43.0567 40.1992 43.3536 40.3633C43.6505 40.5195 43.9591 40.6328 44.2794 40.7031C44.6075 40.7734 44.9552 40.8086 45.3223 40.8086C46.213 40.8086 47.0255 40.5898 47.7598 40.1523V40.9961C47.002 41.3945 46.1856 41.5938 45.3106 41.5938C44.7481 41.5938 44.2169 41.5195 43.7169 41.3711C43.2247 41.2148 42.7755 40.9844 42.3692 40.6797C41.963 40.3672 41.6387 39.9453 41.3966 39.4141C41.1622 38.875 41.045 38.2578 41.045 37.5625C41.045 36.4844 41.4239 35.5703 42.1817 34.8203C42.9395 34.0703 43.8887 33.6953 45.0294 33.6953C46.2872 33.6953 47.3028 34.0508 48.0762 34.7617C48.8575 35.4648 49.2481 36.4375 49.2481 37.6797V46H48.4044V37.6797ZM50.9356 37.6797V46H50.0919V37.6797C50.0919 36.2031 49.6192 35.0312 48.6739 34.1641C47.7286 33.2891 46.5137 32.8516 45.0294 32.8516C43.6544 32.8516 42.5059 33.3086 41.5841 34.2227C40.6622 35.1367 40.2012 36.25 40.2012 37.5625C40.2012 38.3594 40.338 39.0742 40.6114 39.707C40.8927 40.3398 41.2716 40.8477 41.7481 41.2305C42.2247 41.6133 42.7559 41.9062 43.3419 42.1094C43.9356 42.3047 44.5606 42.4023 45.2169 42.4023C46.1075 42.4023 46.9552 42.1953 47.7598 41.7812V42.6719C46.9161 43.0234 46.0645 43.1992 45.2052 43.1992C44.4317 43.1992 43.6973 43.082 43.002 42.8477C42.3067 42.6055 41.6856 42.2578 41.1387 41.8047C40.5919 41.3438 40.1583 40.75 39.838 40.0234C39.5177 39.2891 39.3575 38.4688 39.3575 37.5625C39.3575 36.0234 39.9005 34.7148 40.9864 33.6367C42.0802 32.5508 43.4278 32.0078 45.0294 32.0078C46.1544 32.0078 47.1622 32.2383 48.0528 32.6992C48.9434 33.1523 49.6466 33.8125 50.1622 34.6797C50.6778 35.5469 50.9356 36.5469 50.9356 37.6797ZM52.6231 37.6797V46H51.7794V37.6797C51.7794 36.3906 51.4825 35.25 50.8887 34.2578C50.3028 33.2578 49.4981 32.4922 48.4747 31.9609C47.4512 31.4297 46.3028 31.1641 45.0294 31.1641C43.8184 31.1641 42.713 31.4531 41.713 32.0312C40.713 32.6016 39.9278 33.375 39.3575 34.3516C38.795 35.3281 38.5137 36.3984 38.5137 37.5625C38.5137 38.5625 38.6973 39.4766 39.0645 40.3047C39.4317 41.125 39.9239 41.8008 40.5411 42.332C41.1661 42.8633 41.8731 43.2773 42.6622 43.5742C43.4591 43.8633 44.2911 44.0078 45.1583 44.0078C46.0411 44.0078 46.9083 43.8242 47.7598 43.457V44.3125C46.8692 44.6484 45.9942 44.8164 45.1348 44.8164C43.7833 44.8164 42.5411 44.5117 41.4083 43.9023C40.2755 43.293 39.3692 42.4297 38.6895 41.3125C38.0098 40.1953 37.67 38.9453 37.67 37.5625C37.67 36.5781 37.8575 35.6406 38.2325 34.75C38.6153 33.8594 39.1309 33.0898 39.7794 32.4414C40.4278 31.793 41.2091 31.2773 42.1231 30.8945C43.0372 30.5117 44.0059 30.3203 45.0294 30.3203C46.4591 30.3203 47.7481 30.625 48.8966 31.2344C50.0528 31.8438 50.963 32.7109 51.627 33.8359C52.2911 34.9609 52.6231 36.2422 52.6231 37.6797ZM54.3106 37.6797V46H53.4669V37.6797C53.4669 36.0859 53.0958 34.6641 52.3536 33.4141C51.6114 32.1562 50.5997 31.1875 49.3184 30.5078C48.0372 29.8203 46.6075 29.4766 45.0294 29.4766C43.5137 29.4766 42.127 29.8398 40.8692 30.5664C39.6114 31.293 38.6231 32.2773 37.9044 33.5195C37.1856 34.7539 36.8262 36.1016 36.8262 37.5625C36.8262 38.5234 36.9786 39.4375 37.2833 40.3047C37.5958 41.1641 38.0177 41.918 38.5489 42.5664C39.088 43.207 39.7052 43.7617 40.4005 44.2305C41.1036 44.6992 41.8575 45.0547 42.6622 45.2969C43.4747 45.5391 44.2989 45.6602 45.1348 45.6602C46.0567 45.6602 46.9317 45.4844 47.7598 45.1328V46C46.8927 46.3047 46.002 46.457 45.088 46.457C44.1427 46.457 43.2208 46.3242 42.3223 46.0586C41.4317 45.793 40.6036 45.4023 39.838 44.8867C39.0802 44.3633 38.4122 43.75 37.8341 43.0469C37.2559 42.3359 36.8028 41.5078 36.4747 40.5625C36.1466 39.6172 35.9825 38.6172 35.9825 37.5625C35.9825 36.3516 36.2091 35.1992 36.6622 34.1055C37.1231 33.0039 37.7481 32.0547 38.5372 31.2578C39.3341 30.4531 40.295 29.8164 41.42 29.3477C42.5528 28.8711 43.7559 28.6328 45.0294 28.6328C46.3262 28.6328 47.545 28.8516 48.6856 29.2891C49.8262 29.7266 50.8106 30.3359 51.6387 31.1172C52.4669 31.8906 53.1192 32.8438 53.5958 33.9766C54.0723 35.1094 54.3106 36.3438 54.3106 37.6797ZM62.7716 37.9375H67.8575C68.5294 37.9375 69.0997 37.7266 69.5684 37.3047C70.0372 36.8828 70.2716 36.2891 70.2716 35.5234C70.2716 34.9609 70.0255 34.457 69.5333 34.0117C69.0489 33.5664 68.4903 33.3438 67.8575 33.3438H60.6153V46H59.7716V32.5H67.8575C68.7247 32.5 69.4825 32.8047 70.1309 33.4141C70.7872 34.0234 71.1153 34.7266 71.1153 35.5234C71.1153 36.5156 70.7989 37.3086 70.1661 37.9023C69.5333 38.4883 68.7637 38.7812 67.8575 38.7812H62.7716V37.9375ZM62.7716 39.625H67.8575C68.9825 39.625 69.9473 39.2422 70.752 38.4766C71.5567 37.7109 71.9591 36.7266 71.9591 35.5234C71.9591 34.5 71.5489 33.6016 70.7286 32.8281C69.9083 32.0469 68.9512 31.6562 67.8575 31.6562H58.9278V46H58.0841V30.8125H67.8575C69.1856 30.8125 70.3419 31.2852 71.3262 32.2305C72.3106 33.168 72.8028 34.2656 72.8028 35.5234C72.8028 36.9297 72.3145 38.1055 71.338 39.0508C70.3692 39.9961 69.2091 40.4688 67.8575 40.4688H62.7716V39.625ZM62.7716 41.3125H67.8575C68.8966 41.3125 69.8575 41.0625 70.7403 40.5625C71.6231 40.0625 72.3262 39.3672 72.8497 38.4766C73.3809 37.5859 73.6466 36.6016 73.6466 35.5234C73.6466 34.5469 73.3848 33.6328 72.8614 32.7812C72.338 31.9219 71.627 31.2383 70.7286 30.7305C69.838 30.2227 68.8809 29.9688 67.8575 29.9688H57.2403V46H56.3966V29.125H67.8575C68.7403 29.125 69.588 29.3008 70.4005 29.6523C71.2208 29.9961 71.9278 30.457 72.5216 31.0352C73.1153 31.6055 73.5919 32.2852 73.9512 33.0742C74.3106 33.8633 74.4903 34.6797 74.4903 35.5234C74.4903 36.8906 74.1778 38.0859 73.5528 39.1094C72.9278 40.125 72.088 40.8984 71.0333 41.4297L72.8028 46H71.9005L70.2247 41.7695C70.0137 41.8398 69.7677 41.9102 69.4864 41.9805L71.0684 46H70.1661L68.6192 42.1211C68.377 42.1445 68.1231 42.1562 67.8575 42.1562L69.3458 46H68.4552L66.9786 42.1562H66.2169L67.6348 46H66.7442L65.3145 42.1562H62.7716V41.3125ZM62.3028 46H61.4591V34.1875H67.8575C68.295 34.1875 68.6661 34.3203 68.9708 34.5859C69.2755 34.8438 69.4278 35.1562 69.4278 35.5234C69.4278 36.5703 68.9044 37.0938 67.8575 37.0938H62.7716V36.25H67.8575C68.3419 36.25 68.5841 36.0078 68.5841 35.5234C68.5841 35.3906 68.5098 35.2773 68.3614 35.1836C68.2208 35.082 68.0528 35.0312 67.8575 35.0312H62.3028V46ZM76.3653 29.125H77.2091V46H76.3653V29.125ZM81.4278 29.125H82.2716V41.7812H88.4942V42.625H82.2716V43.4688H88.4942V44.3125H82.2716V45.1562H88.4942V46H81.4278V29.125ZM79.7403 29.125H80.5841V46H79.7403V29.125ZM78.0528 29.125H78.8966V46H78.0528V29.125ZM102.498 34.9375L101.818 35.4531C101.139 34.6094 100.264 34.1875 99.1934 34.1875C98.2637 34.1875 97.4669 34.5195 96.8028 35.1836C96.1466 35.8398 95.8184 36.6328 95.8184 37.5625C95.8184 38.4922 96.1466 39.2891 96.8028 39.9531C97.4669 40.6094 98.2637 40.9375 99.1934 40.9375C99.7169 40.9375 100.205 40.8242 100.658 40.5977C101.119 40.3711 101.51 40.0586 101.83 39.6602L102.486 40.2109C102.096 40.7031 101.611 41.0898 101.033 41.3711C100.455 41.6445 99.8419 41.7812 99.1934 41.7812C98.0294 41.7812 97.0333 41.3711 96.2052 40.5508C95.3848 39.7227 94.9747 38.7266 94.9747 37.5625C94.9747 36.3984 95.3848 35.4062 96.2052 34.5859C97.0333 33.7578 98.0294 33.3438 99.1934 33.3438C99.8497 33.3438 100.467 33.4883 101.045 33.7773C101.623 34.0586 102.107 34.4453 102.498 34.9375ZM103.811 33.8828L103.143 34.3984C102.674 33.8047 102.092 33.3398 101.397 33.0039C100.709 32.668 99.9747 32.5 99.1934 32.5C97.795 32.5 96.5997 32.9961 95.6075 33.9883C94.6231 34.9805 94.1309 36.1719 94.1309 37.5625C94.1309 38.9531 94.6231 40.1445 95.6075 41.1367C96.5997 42.1289 97.795 42.625 99.1934 42.625C99.9747 42.625 100.713 42.457 101.408 42.1211C102.104 41.7773 102.686 41.3086 103.154 40.7148L103.799 41.2539C103.252 41.9414 102.576 42.4844 101.772 42.8828C100.967 43.2734 100.107 43.4688 99.1934 43.4688C98.1231 43.4688 97.1348 43.207 96.2286 42.6836C95.3223 42.1523 94.6036 41.4336 94.0723 40.5273C93.5489 39.6211 93.2872 38.6328 93.2872 37.5625C93.2872 36.4922 93.5489 35.5039 94.0723 34.5977C94.6036 33.6914 95.3223 32.9766 96.2286 32.4531C97.1348 31.9219 98.1231 31.6562 99.1934 31.6562C100.107 31.6562 100.967 31.8555 101.772 32.2539C102.584 32.6445 103.264 33.1875 103.811 33.8828ZM105.135 32.8281L104.479 33.3555C103.846 32.5664 103.068 31.9453 102.147 31.4922C101.225 31.0391 100.24 30.8125 99.1934 30.8125C98.2794 30.8125 97.4044 30.9922 96.5684 31.3516C95.7403 31.7031 95.0216 32.1836 94.4122 32.793C93.8106 33.3945 93.3302 34.1133 92.9708 34.9492C92.6192 35.7773 92.4434 36.6484 92.4434 37.5625C92.4434 38.4766 92.6192 39.3516 92.9708 40.1875C93.3302 41.0156 93.8106 41.7344 94.4122 42.3438C95.0216 42.9453 95.7403 43.4258 96.5684 43.7852C97.4044 44.1367 98.2794 44.3125 99.1934 44.3125C100.24 44.3125 101.225 44.0859 102.147 43.6328C103.068 43.1797 103.846 42.5586 104.479 41.7695L105.111 42.3203C104.4 43.2031 103.529 43.8984 102.498 44.4062C101.467 44.9062 100.365 45.1562 99.1934 45.1562C98.1622 45.1562 97.1778 44.957 96.2403 44.5586C95.3028 44.1523 94.4942 43.6133 93.8145 42.9414C93.1427 42.2617 92.6036 41.4531 92.1973 40.5156C91.7989 39.5781 91.5997 38.5938 91.5997 37.5625C91.5997 36.5312 91.7989 35.5469 92.1973 34.6094C92.6036 33.6719 93.1427 32.8672 93.8145 32.1953C94.4942 31.5156 95.3028 30.9766 96.2403 30.5781C97.1778 30.1719 98.1622 29.9688 99.1934 29.9688C100.373 29.9688 101.479 30.2227 102.51 30.7305C103.549 31.2383 104.424 31.9375 105.135 32.8281ZM106.447 31.7734L105.768 32.2773C104.979 31.3008 104.01 30.5312 102.861 29.9688C101.721 29.4062 100.498 29.125 99.1934 29.125C98.0528 29.125 96.9591 29.3477 95.9122 29.793C94.8731 30.2383 93.9747 30.8398 93.2169 31.5977C92.4669 32.3477 91.8692 33.2461 91.4239 34.293C90.9786 35.332 90.7559 36.4219 90.7559 37.5625C90.7559 38.7031 90.9786 39.7969 91.4239 40.8438C91.8692 41.8828 92.4669 42.7812 93.2169 43.5391C93.9747 44.2891 94.8731 44.8867 95.9122 45.332C96.9591 45.7773 98.0528 46 99.1934 46C100.498 46 101.721 45.7188 102.861 45.1562C104.01 44.5938 104.979 43.8242 105.768 42.8477L106.436 43.3633C105.568 44.4414 104.502 45.293 103.236 45.918C101.979 46.5352 100.631 46.8438 99.1934 46.8438C97.9356 46.8438 96.7325 46.5977 95.5841 46.1055C94.4434 45.6133 93.4591 44.9531 92.6309 44.125C91.8028 43.2969 91.1427 42.3125 90.6505 41.1719C90.1583 40.0234 89.9122 38.8203 89.9122 37.5625C89.9122 36.3047 90.1583 35.1055 90.6505 33.9648C91.1427 32.8164 91.8028 31.8281 92.6309 31C93.4591 30.1719 94.4434 29.5117 95.5841 29.0195C96.7325 28.5273 97.9356 28.2812 99.1934 28.2812C100.631 28.2812 101.982 28.5938 103.248 29.2188C104.514 29.8359 105.58 30.6875 106.447 31.7734ZM114.498 35.1836C113.842 35.8398 113.514 36.6328 113.514 37.5625C113.514 38.4922 113.842 39.2891 114.498 39.9531C115.162 40.6094 115.959 40.9375 116.889 40.9375C117.818 40.9375 118.611 40.6094 119.268 39.9531C119.932 39.2891 120.264 38.4922 120.264 37.5625C120.264 36.6328 119.932 35.8398 119.268 35.1836C118.611 34.5195 117.818 34.1875 116.889 34.1875C115.959 34.1875 115.162 34.5195 114.498 35.1836ZM113.9 40.5508C113.08 39.7227 112.67 38.7266 112.67 37.5625C112.67 36.3984 113.08 35.4062 113.9 34.5859C114.729 33.7578 115.725 33.3438 116.889 33.3438C118.053 33.3438 119.045 33.7578 119.865 34.5859C120.693 35.4062 121.107 36.3984 121.107 37.5625C121.107 38.7266 120.693 39.7227 119.865 40.5508C119.045 41.3711 118.053 41.7812 116.889 41.7812C115.725 41.7812 114.729 41.3711 113.9 40.5508ZM113.303 33.9883C112.318 34.9805 111.826 36.1719 111.826 37.5625C111.826 38.9531 112.318 40.1445 113.303 41.1367C114.295 42.1289 115.49 42.625 116.889 42.625C118.287 42.625 119.479 42.1289 120.463 41.1367C121.455 40.1445 121.951 38.9531 121.951 37.5625C121.951 36.1719 121.455 34.9805 120.463 33.9883C119.479 32.9961 118.287 32.5 116.889 32.5C115.49 32.5 114.295 32.9961 113.303 33.9883ZM111.768 40.5273C111.244 39.6211 110.982 38.6328 110.982 37.5625C110.982 36.4922 111.244 35.5039 111.768 34.5977C112.299 33.6914 113.018 32.9766 113.924 32.4531C114.83 31.9219 115.818 31.6562 116.889 31.6562C117.959 31.6562 118.947 31.9219 119.854 32.4531C120.76 32.9766 121.475 33.6914 121.998 34.5977C122.529 35.5039 122.795 36.4922 122.795 37.5625C122.795 38.6328 122.529 39.6211 121.998 40.5273C121.475 41.4336 120.76 42.1523 119.854 42.6836C118.947 43.207 117.959 43.4688 116.889 43.4688C115.818 43.4688 114.83 43.207 113.924 42.6836C113.018 42.1523 112.299 41.4336 111.768 40.5273ZM110.666 34.9492C110.315 35.7773 110.139 36.6484 110.139 37.5625C110.139 38.4766 110.315 39.3516 110.666 40.1875C111.025 41.0156 111.506 41.7344 112.107 42.3438C112.717 42.9453 113.436 43.4258 114.264 43.7852C115.1 44.1367 115.975 44.3125 116.889 44.3125C117.803 44.3125 118.674 44.1367 119.502 43.7852C120.338 43.4258 121.057 42.9453 121.658 42.3438C122.268 41.7344 122.748 41.0156 123.1 40.1875C123.459 39.3516 123.639 38.4766 123.639 37.5625C123.639 36.6484 123.459 35.7773 123.1 34.9492C122.748 34.1133 122.268 33.3945 121.658 32.793C121.057 32.1836 120.338 31.7031 119.502 31.3516C118.674 30.9922 117.803 30.8125 116.889 30.8125C115.975 30.8125 115.1 30.9922 114.264 31.3516C113.436 31.7031 112.717 32.1836 112.107 32.793C111.506 33.3945 111.025 34.1133 110.666 34.9492ZM109.893 40.5156C109.494 39.5781 109.295 38.5938 109.295 37.5625C109.295 36.5312 109.494 35.5469 109.893 34.6094C110.299 33.6719 110.838 32.8672 111.51 32.1953C112.19 31.5156 112.998 30.9766 113.936 30.5781C114.873 30.1719 115.857 29.9688 116.889 29.9688C117.92 29.9688 118.904 30.1719 119.842 30.5781C120.779 30.9766 121.584 31.5156 122.256 32.1953C122.936 32.8672 123.475 33.6719 123.873 34.6094C124.279 35.5469 124.482 36.5312 124.482 37.5625C124.482 38.5938 124.279 39.5781 123.873 40.5156C123.475 41.4531 122.936 42.2617 122.256 42.9414C121.584 43.6133 120.779 44.1523 119.842 44.5586C118.904 44.957 117.92 45.1562 116.889 45.1562C115.857 45.1562 114.873 44.957 113.936 44.5586C112.998 44.1523 112.19 43.6133 111.51 42.9414C110.838 42.2617 110.299 41.4531 109.893 40.5156ZM109.119 34.293C108.674 35.332 108.451 36.4219 108.451 37.5625C108.451 38.7031 108.674 39.7969 109.119 40.8438C109.565 41.8828 110.162 42.7812 110.912 43.5391C111.67 44.2891 112.568 44.8867 113.607 45.332C114.654 45.7773 115.748 46 116.889 46C118.029 46 119.119 45.7773 120.158 45.332C121.205 44.8867 122.104 44.2891 122.854 43.5391C123.611 42.7812 124.213 41.8828 124.658 40.8438C125.104 39.7969 125.326 38.7031 125.326 37.5625C125.326 36.4219 125.104 35.332 124.658 34.293C124.213 33.2461 123.611 32.3477 122.854 31.5977C122.104 30.8398 121.205 30.2383 120.158 29.793C119.119 29.3477 118.029 29.125 116.889 29.125C115.748 29.125 114.654 29.3477 113.607 29.793C112.568 30.2383 111.67 30.8398 110.912 31.5977C110.162 32.3477 109.565 33.2461 109.119 34.293ZM108.346 41.1719C107.854 40.0234 107.607 38.8203 107.607 37.5625C107.607 36.3047 107.854 35.1055 108.346 33.9648C108.838 32.8164 109.498 31.8281 110.326 31C111.154 30.1719 112.139 29.5117 113.279 29.0195C114.428 28.5273 115.631 28.2812 116.889 28.2812C118.147 28.2812 119.346 28.5273 120.486 29.0195C121.635 29.5117 122.623 30.1719 123.451 31C124.279 31.8281 124.94 32.8164 125.432 33.9648C125.924 35.1055 126.17 36.3047 126.17 37.5625C126.17 38.8203 125.924 40.0234 125.432 41.1719C124.94 42.3125 124.279 43.2969 123.451 44.125C122.623 44.9531 121.635 45.6133 120.486 46.1055C119.346 46.5977 118.147 46.8438 116.889 46.8438C115.631 46.8438 114.428 46.5977 113.279 46.1055C112.139 45.6133 111.154 44.9531 110.326 44.125C109.498 43.2969 108.838 42.3125 108.346 41.1719ZM138.85 35.4531V46H138.006V35.4531C138.006 35.2266 137.967 35.0352 137.889 34.8789C137.818 34.7148 137.725 34.5898 137.607 34.5039C137.49 34.418 137.334 34.3516 137.139 34.3047C136.951 34.25 136.768 34.2188 136.588 34.2109C136.408 34.1953 136.186 34.1875 135.92 34.1875C135.654 34.1875 135.432 34.1953 135.252 34.2109C135.072 34.2188 134.885 34.25 134.69 34.3047C134.502 34.3516 134.35 34.418 134.232 34.5039C134.115 34.5898 134.018 34.7148 133.94 34.8789C133.869 35.0352 133.834 35.2266 133.834 35.4531V46H132.99V35.4531C132.99 34.0469 133.967 33.3438 135.92 33.3438C137.873 33.3438 138.85 34.0469 138.85 35.4531ZM140.537 35.4531V46H139.693V35.4531C139.693 34.4609 139.342 33.7227 138.639 33.2383C137.943 32.7461 137.037 32.5 135.92 32.5C134.803 32.5 133.893 32.7461 133.19 33.2383C132.494 33.7227 132.147 34.4609 132.147 35.4531V46H131.303V35.4531C131.303 34.6328 131.514 33.9297 131.936 33.3438C132.357 32.7578 132.908 32.332 133.588 32.0664C134.275 31.793 135.053 31.6562 135.92 31.6562C136.787 31.6562 137.561 31.793 138.24 32.0664C138.928 32.332 139.482 32.7578 139.904 33.3438C140.326 33.9297 140.537 34.6328 140.537 35.4531ZM142.225 35.4531V46H141.381V35.4531C141.381 34.7188 141.236 34.0547 140.947 33.4609C140.666 32.8672 140.275 32.3789 139.775 31.9961C139.275 31.6133 138.697 31.3203 138.041 31.1172C137.385 30.9141 136.678 30.8125 135.92 30.8125C135.162 30.8125 134.455 30.9141 133.799 31.1172C133.143 31.3203 132.565 31.6133 132.065 31.9961C131.565 32.3789 131.17 32.8672 130.881 33.4609C130.6 34.0547 130.459 34.7188 130.459 35.4531V46H129.615V35.4531C129.615 34.6016 129.779 33.8281 130.107 33.1328C130.443 32.4375 130.897 31.8633 131.467 31.4102C132.037 30.9492 132.705 30.5938 133.471 30.3438C134.236 30.0938 135.053 29.9688 135.92 29.9688C136.787 29.9688 137.604 30.0938 138.369 30.3438C139.135 30.5938 139.803 30.9492 140.373 31.4102C140.943 31.8633 141.393 32.4375 141.721 33.1328C142.057 33.8281 142.225 34.6016 142.225 35.4531ZM143.912 46H143.068V35.4531C143.068 34.6016 142.877 33.7852 142.494 33.0039C142.119 32.2227 141.611 31.5508 140.971 30.9883C140.33 30.418 139.568 29.9648 138.686 29.6289C137.803 29.293 136.881 29.125 135.92 29.125C134.6 29.125 133.4 29.375 132.322 29.875C131.252 30.3672 130.393 31.1016 129.744 32.0781C129.096 33.0469 128.772 34.1719 128.772 35.4531V46H127.928V35.4531C127.928 34.375 128.139 33.3828 128.561 32.4766C128.982 31.5703 129.553 30.8125 130.272 30.2031C130.998 29.5938 131.846 29.1211 132.815 28.7852C133.791 28.4492 134.826 28.2812 135.92 28.2812C137.857 28.2812 139.537 28.7695 140.959 29.7461C142.381 28.7695 144.061 28.2812 145.998 28.2812C147.092 28.2812 148.123 28.4492 149.092 28.7852C150.068 29.1211 150.916 29.5938 151.635 30.2031C152.361 30.8125 152.936 31.5703 153.357 32.4766C153.779 33.3828 153.99 34.375 153.99 35.4531V46H153.147V35.4531C153.147 34.1797 152.822 33.0586 152.174 32.0898C151.525 31.1133 150.662 30.375 149.584 29.875C148.514 29.375 147.318 29.125 145.998 29.125C144.342 29.125 142.897 29.5156 141.662 30.2969C141.842 30.4531 142.041 30.6562 142.26 30.9062C143.33 30.2812 144.576 29.9688 145.998 29.9688C146.865 29.9688 147.682 30.0938 148.447 30.3438C149.213 30.5938 149.881 30.9492 150.451 31.4102C151.022 31.8633 151.471 32.4375 151.799 33.1328C152.135 33.8281 152.303 34.6016 152.303 35.4531V46H151.459V35.4531C151.459 34.7188 151.315 34.0547 151.025 33.4609C150.744 32.8672 150.354 32.3789 149.854 31.9961C149.354 31.6133 148.775 31.3203 148.119 31.1172C147.463 30.9141 146.756 30.8125 145.998 30.8125C144.756 30.8125 143.682 31.0664 142.775 31.5742C142.916 31.793 143.057 32.0352 143.197 32.3008C143.963 31.8711 144.897 31.6562 145.998 31.6562C146.865 31.6562 147.639 31.793 148.318 32.0664C149.006 32.332 149.561 32.7578 149.982 33.3438C150.404 33.9297 150.615 34.6328 150.615 35.4531V46H149.772V35.4531C149.772 34.4609 149.42 33.7227 148.717 33.2383C148.022 32.7461 147.115 32.5 145.998 32.5C144.982 32.5 144.158 32.6875 143.525 33.0625C143.627 33.3594 143.705 33.6406 143.76 33.9062C144.252 33.5312 144.998 33.3438 145.998 33.3438C147.951 33.3438 148.928 34.0469 148.928 35.4531V46H148.084V35.4531C148.084 35.2266 148.045 35.0352 147.967 34.8789C147.897 34.7148 147.803 34.5898 147.686 34.5039C147.568 34.418 147.412 34.3516 147.217 34.3047C147.029 34.25 146.846 34.2188 146.666 34.2109C146.486 34.1953 146.264 34.1875 145.998 34.1875C145.732 34.1875 145.51 34.1953 145.33 34.2109C145.15 34.2188 144.963 34.25 144.768 34.3047C144.58 34.3516 144.428 34.418 144.311 34.5039C144.193 34.5898 144.096 34.7148 144.018 34.8789C143.947 35.0352 143.912 35.2266 143.912 35.4531V46Z" fill="#FDFCFC"/>
</svg>
