<svg width="42" height="45" viewBox="0 0 42 45" fill="none" xmlns="http://www.w3.org/2000/svg">
<path d="M39.6262 0H2.37378C1.06499 0 0 1.55045 0 3.45584V8.46583C0 10.3714 1.06499 11.9219 2.37378 11.9219H39.6262C40.935 11.9219 42 10.3714 42 8.46583V3.45584C42 1.55045 40.935 0 39.6262 0Z" fill="white"/>
<path d="M39.6262 16.5391H2.37378C1.06499 16.5391 0 18.0895 0 19.9949V25.0051C0 26.9105 1.06499 28.4609 2.37378 28.4609H39.6262C40.935 28.4609 42 26.9105 42 25.0051V19.9949C42 18.0895 40.935 16.5391 39.6262 16.5391Z" fill="white"/>
<path d="M39.6262 33.0781H2.37378C1.06499 33.0781 0 34.6284 0 36.5342V41.5442C0 43.4496 1.06499 45 2.37378 45H39.6262C40.935 45 42 43.4496 42 41.5442V36.5342C42 34.6284 40.935 33.0781 39.6262 33.0781Z" fill="white"/>
</svg>
